# xmcd
#
# Track frame offsets:
#	150
#	24618
#	40623
#	57273
#	71720
#	85472
#	102186
#	117265
#	132336
#	144041
#	158698
#	177769
#	194815
#	209251
#	226953
#	243668
#	259594
#	272423
#	285407
#	303100
#
# Disc length: 4245 seconds
#
# Revision: 1
# Processed by: cddbd v1.5.2PL0 Copyright (c) Steve Scherf et al.
# Submitted via: EasyCDDAExtractor 12.1.0.1
#
DISCID=14109314
DTITLE=조용필 - Big Gold 80 CD4
DYEAR=1900
DGENRE=Ballad
TTITLE0=킬리만자로의 표범
TTITLE1=그 겨울의 찻집
TTITLE2=그대 눈물이 마를때
TTITLE3=잊기로 했네
TTITLE4=사랑은 아직도 끝나지 않았나
TTITLE5=내 청춘의 빈잔
TTITLE6=상처
TTITLE7=내 가슴에 내리는 비
TTITLE8=벌써 잊었나
TTITLE9=얄미운 님아
TTITLE10=사랑하기 때문에
TTITLE11=바람과 갈대
TTITLE12=차라리 학이 되리라
TTITLE13=내가 어렸을 적엔
TTITLE14=나그네 바람
TTITLE15=나의 노래
TTITLE16=이별의 뒤안길
TTITLE17=사랑의 만가
TTITLE18=프리마돈나
TTITLE19=¿©ÇàÀ» ¶°³ª¿ä
EXTD=
EXTT0=
EXTT1=
EXTT2=
EXTT3=
EXTT4=
EXTT5=
EXTT6=
EXTT7=
EXTT8=
EXTT9=
EXTT10=
EXTT11=
EXTT12=
EXTT13=
EXTT14=
EXTT15=
EXTT16=
EXTT17=
EXTT18=
EXTT19=
PLAYORDER=
